<?xml version="1.0" encoding="UTF-8"?>
<svg width="595.28pt" version="1.1" xmlns="http://www.w3.org/2000/svg" height="841.89pt" viewBox="0 0 595.28 841.89" xmlns:xlink="http://www.w3.org/1999/xlink">
 <defs>
  <clipPath id="Clip0">
   <path d="M0 0 L180.75 0 L180.75 84.25 L0 84.25 L0 0 Z" transform="translate(146, 277)"/>
  </clipPath>
 </defs>
 <g id="Background">
  <path style="fill:#00ff00; fill-rule:evenodd;stroke:#161413; stroke-width:2; stroke-linecap:butt; stroke-linejoin:round; stroke-dasharray:none;" id="Polyline34" d="M0 75 L1.375 83.75 L1.125 92.875 L263.875 92.875 L263.625 83.625 L273.875 62 L226 68.125 L226.125 64.375 L236 64.25 L236 62.875 L225.75 61.25 L221.875 59.25 L220.5 58.625 L219 58.5 L217.125 58.75 L216 59 L214.625 59.125 L213.375 59.875 L212.75 60.5 L212.25 61.75 L212 63.25 L212.25 65.5 L212.375 69.75 L195.875 70.375 L194 66.875 L190.375 66.875 L190.25 62.75 L191 62.5 L191.25 52.875 L190 52.125 L188.375 50.75 L187.375 49.375 L186.5 47.875 L185.5 45.875 L184.5 44 L183.875 42 L182.875 39.875 L176.5 47.375 L176.875 51.75 L168.375 52 L168.375 50.875 L167.125 50.875 L167.125 49.875 L164.75 49.75 L164.75 42.75 L169.875 42.625 L169.625 36 L164.375 36 L164.375 33.125 L172.875 32.5 L172.625 26.875 L168.25 26.625 L168 20.75 L165.625 20.75 L165.375 11.125 L156.625 10.625 L156.375 18 L153.375 18 L153.5 0.625 L150.625 0.75 L150.25 7.5 L148.375 7.5 L148.25 0 L146.375 0 L146.625 7 L144.375 8.375 L144.5 9.75 L150.375 9.625 L150.625 25.75 L151.75 26.75 L153 26.75 L153.125 21.5 L155.375 21.625 L155.625 29.5 L158.5 30.5 L158.75 37 L149.125 37 L148.75 37.25 L148.875 61 L144.625 61.125 L144.625 68.375 L135.25 68.375 L135.25 65.25 L138.375 65.125 L138.375 60.375 L126 60.5 L125.875 64.25 L126.625 64.25 L126.625 68.25 L124.375 68.375 L123.25 67.625 L123 54.875 L119.875 55 L119.125 57 L118.75 59.75 L116.375 59.625 L115.75 54.25 L115.375 54.5 L115.125 47.5 L116.375 46.625 L120.875 46.25 L120.875 45.5 L122.125 45.5 L122.125 43.5 L121.625 43.5 L116.25 32.625 L116.25 43.625 L114.375 43.375 L113.625 42 L106.375 42.125 L105.75 43 L105.625 45.75 L105.375 58 L101 57.875 L100 50.75 L99.625 49.25 L99.125 47.875 L98.5 46.875 L97.75 46 L96.25 45.5 L95.25 45.625 L94.375 46.25 L93.625 47.125 L93 48.5 L93 50.125 L93.75 50.875 L93.75 52.75 L93.75 54 L93.25 54.75 L93.25 57.375 L91.875 57.375 L91.125 55.875 L91 54 L90.25 53 L84.75 52.875 L84.875 57.875 L83.625 58 L83.375 59.125 L82.625 59.125 L82.625 69.375 L69.25 69.125 L69.375 60.875 L66.25 59.875 L64.75 59.5 L63.75 59.25 L62.5 59.125 L61.375 59.125 L59.5 59.875 L57.875 61 L55.875 63 L46.5 63.875 L46.25 65.375 L55.375 65.375 L56.25 66.25 L56.125 69.5 L42.75 69.5 L42.625 74.75 L40.75 74.75 L39.875 69.125 L39.25 64.125 L39.125 63.75 L31.375 63.75 L31.375 67.5 L30.125 69 L28.5 69.625 L28.125 74.5 L0 75 Z" transform="translate(106.5, 142.375)"/>
  <g id="Group2" clip-path="url(#Clip0)">
   <path style="fill:#ffec00; fill-rule:evenodd;stroke:#161413; stroke-width:2; stroke-linecap:butt; stroke-linejoin:round; stroke-dasharray:none;" id="Polyline67" d="M148.75 30 L178 57 L178.75 60.75 L176.75 62.5 L177 64.5 L178.75 64 L178.75 66.5 L174.25 68.5 L172.25 68.75 L168 69.25 L166.5 70.75 L161.5 71.75 C161.5 71.75 162 81 153.25 80.5 C153.25 80.5 146 81.25 145.25 72.25 L137.75 72 C137.75 72 138.25 81.75 130.75 80.5 C130.75 80.5 123.5 82 123 72.25 L121.25 72 L119.5 72 C119.5 72 120.5 80.75 112.5 80.5 C112.5 80.5 105 82.25 103.5 71.75 L94 72 C94 72 93.5 81 85.25 80.5 C85.25 80.5 79 81.25 78 72.75 L75.75 72.75 C75.75 72.75 77 81.25 68.25 80.75 C68.25 80.75 61 82.25 60.25 72.75 L47.25 72.75 C47.25 72.75 46.75 80.75 39.25 81 C39.25 81 31.75 81 31.25 72.25 L25.75 72 L23 69.25 L21 66.5 L17.5 65.5 L13.75 64.25 L11.25 62.25 L10 59.5 L9.25 56 L8.25 53.25 L1.5 52.75 L0.75 52.25 L0 51.5 L0 50.25 L0.25 49 L1 48 L4 45 L9.25 34.5 L57.25 29.75 L62.75 29.25 L65.5 29.25 L72.25 29 L73.75 28.5 L74.25 27.5 L74 26.75 L73.5 25.75 L72.25 25 L70 23.5 L64.75 19.5 L63.5 17.75 L62.5 16 L62.25 13.5 L62.25 11.25 L62.5 8.25 L63.5 7 L65.25 6.25 L67.5 6 L69.75 5.75 L81.75 5.75 L86 3.25 L88 1.75 L90.25 1 L93 0.25 L96 0 L99.75 0.5 L102.5 1.5 L105.25 3 L107.5 5 L108.75 7 L110.25 8 L113 8.25 L122 8 L124.5 8.75 L127.5 10.25 L129.5 11.5 L130.5 12 L134.5 12.5 L136.25 13.25 L138 14 L138.5 16.5 L139.75 17 L169.5 16.75 L169.5 22 L139 21.75 L138.25 23 L137.5 23.75 L137.5 25.25 L136 25.5 L131.75 26 L131.25 27 L131.25 27.5 L131.75 28 L132.75 28.5 L134 29.25 L148.75 30 Z" transform="translate(147, 278)"/>
   <path style="fill:none;stroke:#161413; stroke-width:2; stroke-linecap:butt; stroke-linejoin:round; stroke-dasharray:none;" d="M1.25 0 L0.5 0.75 L0 1.75 L1 6.25 L3 9.25 L5.25 11.75 L8.75 15 L13.75 18.25 L18.25 21.5 L21.5 23.5 L24.75 24.5 L27.75 24.75 L32 24.75 L59 24.5 L104.5 24.25 L148.25 24.75 L151.25 24 L154.75 22.25 L162 17 L170.75 10.5 " transform="translate(154.75, 334.25)"/>
  </g>
 </g>
</svg>
